inDegrees=yes
name=ouput_greeting.mot
DataType=double
version=3
OpenSimVersion=4.5
endheader
time	pelvis_tilt	pelvis_list	pelvis_rotation	pelvis_tx	pelvis_ty	pelvis_tz	hip_flexion_r	hip_adduction_r	hip_rotation_r	knee_angle_r	knee_angle_r_beta	ankle_angle_r	subtalar_angle_r	mtp_angle_r	hip_flexion_l	hip_adduction_l	hip_rotation_l	knee_angle_l	knee_angle_l_beta	ankle_angle_l	subtalar_angle_l	mtp_angle_l	lumbar_extension	lumbar_bending	lumbar_rotation	arm_flex_r	arm_add_r	arm_rot_r	elbow_flex_r	pro_sup_r	wrist_flex_r	wrist_dev_r	arm_flex_l	arm_add_l	arm_rot_l	elbow_flex_l	pro_sup_l	wrist_flex_l	wrist_dev_l
1.423076923076922	29.73131073715696	-12.27577373033172	-162.8232384087938	0	0.93	0	26.32123905739387	-18.60128065832506	3.093232264189376	0.5233855228365071	0.009134800630769019	-4.265156022061173	0	0	29.95786097860842	17.95893269454451	-11.21130468336453	4.524115387292444	0.07896070924839156	-4.265156022045963	0	0	0	0	0	0	0	0	0	0	0	0	0	0	0	0	0	0	0
1.442307692307692	25.76436955218548	-12.10912610511231	-154.8503583791205	0	0.93	0	19.71096051453003	-20.90073941486238	-5.966004405486482	0.6753430507238768	0.01178695981559473	-4.300403549184924	0	0	21.54187931885777	20.35084571353087	2.069155926105955	2.421501557055023	0.04226317501277947	-4.300403549170425	0	0	0	0	0	0	0	0	6.115724659990327e-45	0	0	0	0	0	0	5.331657395889003e-45	4.704403584607944e-46	0	0
1.461538461538461	25.4212116226873	-18.40825442370191	-144.2140768949824	9.387442750359142e-41	0.93	-4.177802554768592e-28	12.04317631958199	-28.80180501029986	-15.66210464681206	0.6780586669345345	0.01183435625969123	-4.332616134780459	3.948836416060648e-18	-4.209034690662437e-17	14.521923707481	28.56253395859339	9.097766554658755	3.276836398347618	0.05719158420035841	-4.332616134759529	2.475274728017539e-16	-2.796736123784574e-16	-1.808546639403184e-24	-1.378871961370182e-17	9.853480474543821e-18	-1.67273173537805e-16	-1.916378273745351e-17	-8.020493159345631e-17	0	1.768627530027731e-14	-4.427169316889167e-20	-6.248872529161078e-18	4.178436641363673e-17	8.523023638449497e-17	5.938739689063614e-17	1.27442656074934e-13	0	-2.895112796406353e-21	-4.115413481554321e-18
1.48076923076923	4.924960260203237	-26.86572332751284	-162.0263863444303	1.004439195966549e-45	0.93	-4.470151699685165e-33	-3.807181223635509	-26.86767937924424	-2.999987119568646	0.4080590798102382	0.007121974485346974	-4.365715027226067	2.952546865533454e-12	-2.348473971926814e-12	-2.928040862534578	27.06025197293205	1.819819840757111	1.663783695377487	0.02903850352533551	-4.365715027210248	-3.644079467573983e-12	-8.903609546010448e-14	1.282910509198221e-24	-8.943980123491758e-24	4.854984371218971e-24	-1.526946377188916e-13	1.838512915876119e-14	9.37605767432247e-13	0	2.69047095989669e-14	1.567191259300577e-22	1.433228624050248e-22	-1.893367710830008e-12	-3.793769667408336e-12	-9.41417367652494e-13	1.15176141815058e-15	0	4.125578017583393e-22	2.020947041520201e-22
1.499999999999999	7.801084911872453	-29.62303412567124	-158.2410000149666	0	0.93	0	-4.131860732283626	-30.16184987572663	-7.155484905757379	0.4549209047229744	0.007939867623567326	-4.371204322027895	0	0	-1.644762009864034	29.88540898881775	0.6718313856609007	3.125020192438328	0.05454189154935563	-4.371204322009905	0	0	0	0	0	0	0	0	0	0	0	0	0	0	0	0	0	0	0
1.519230769230768	4.97591066852499	17.1583105060183	-174.8250660869925	0	0.93	0	6.494144746278607	16.40029269277041	6.054541179628517	0.6976641700515538	0.01217653684059323	-4.489575762970811	5.729312180962643e-15	-6.088722578359304e-23	9.98857853560804	-16.00780960548885	-11.85054682431741	4.519225057470912	0.07887535689149738	-4.489575762969009	-3.72781125114107e-19	-1.638563359430782e-23	-1.040828502385845e-25	6.293949563473134e-23	-4.407208588787443e-25	4.088844539391218e-15	8.071361900728097e-18	-3.993308681115874e-15	3.712001978700734e-15	0	-3.85557655136878e-19	1.460893755253415e-22	6.236009914642575e-15	9.047738426807013e-15	-2.968410705556658e-14	1.715189246134352e-13	7.16504768810733e-14	1.407240279078931e-19	2.028751558384233e-22
1.538461538461537	10.45696559714752	16.47689189379726	-175.6325081776878	0	0.93	0	12.44736241703065	15.00798010866665	5.101981837636227	0.9570929072404798	0.01670442247883105	-4.505187354298244	0	0	12.69039664207822	-14.49101431386197	-6.089417020724229	0.660716517977937	0.01153167866102731	-4.505187354296496	0	0	0	0	0	0	0	0	6.629810161910684e-39	1.079366675850212e-39	0	0	0	0	0	1.699595219942821e-38	0	0	0
1.557692307692307	9.896482506257428	12.02678379533757	-165.7153084058864	0	0.93	0	13.30970678568946	8.430438417692368	-2.926051213877956	0.7819873864025951	0.01364825460179042	-4.519756504633683	0	0	14.04086408572995	-8.064183587749191	0.5503634026195483	2.032995971421275	0.03548247338108178	-4.519756504631988	0	0	0	0	0	0	0	0	0	3.760527730737488e-39	0	0	0	0	0	0	2.368457368848545e-40	0	0
1.576923076923076	10.81376711880698	16.05629517777627	-164.749580428181	0	0.93	0	15.85939687347282	11.62113697905704	-4.205464512225333	0.951589677657492	0.01660837300311476	-4.52487021882872	0	0	16.95226627718965	-11.41196137220343	0.2547641066672711	3.217687157248853	0.05615923519312901	-4.524870218827681	0	0	0	0	0	0	0	0	6.401514335511427e-39	0	0	0	0	0	0	0	9.012141267768915e-40	0	0
1.596153846153845	23.80768066822044	1.845140329991801	-166.0077272591732	0	0.93	0	24.16717873501548	-4.253816605754342	0.1341313031572085	0.7663494328991713	0.01337532082488189	-4.553982977106926	2.753493562257817e-19	1.884282310067384e-26	26.13516883555373	4.298344745581681	-6.87387290543797	3.809854859623411	0.06649451132353489	-4.553982977105959	7.024445434966634e-26	-4.922920240718441e-27	-2.938273616066393e-30	-2.313733339126585e-25	-2.775028976365954e-30	1.218388064520164e-19	-5.829482117725374e-25	7.49641595027926e-20	8.636585319329603e-10	8.635411514143017e-10	6.284054120049372e-26	-7.557071042423167e-27	8.864714144748294e-19	-9.998095220592498e-19	1.426067288593461e-18	8.636628409744847e-10	8.634187348022241e-10	-1.55026673589196e-25	4.263658141488763e-25
1.615384615384614	29.44852809970408	-5.854969608764987	-166.8414833976406	0	0.93	0	28.19529516204234	-11.40964741805182	5.476443881968943	0.4469897804506969	0.007801443391631245	-4.57391404049856	0	0	28.35262552984227	11.40018090161776	-5.730277259022384	0.789780718796918	0.01378427391177369	-4.573914040497829	0	0	0	0	0	0	0	0	0	0	0	0	0	0	0	0	0	0	0
1.634615384615383	32.379315607141	-10.72309682364779	-168.0112204057855	0	0.93	0	30.70509935293519	-15.08669383491426	9.133731471772673	0.5579151483646184	0.009737456285715249	-4.584994740414428	0	0	30.74624882690127	14.86245415208176	-10.74869850547097	0.7239480110084324	0.0126352764053613	-4.584994740413713	0	0	0	0	0	0	0	0	1.052357267868557e-38	0	0	0	0	0	0	0	0	0	0
1.653846153846152	33.55704965231588	-15.65886058349192	-170.2866278806378	0	0.93	0	32.149069873103	-18.10371686848601	14.36778522463463	0.3757218977675883	0.006557584187885948	-4.595856854212311	0	0	32.87867902347831	17.30763934033739	-17.21194586055324	1.42802309813068	0.02492370485691044	-4.595856854211616	0	0	0	0	0	0	0	0	0	2.974410417576014e-38	0	0	0	0	0	2.246700018165263e-38	2.112852646677343e-38	0	0
1.673076923076922	31.56110836567547	-4.978993589467163	-163.6297952348021	0	0.93	0	29.58022795589081	-12.43347129534544	2.328200878816927	0.4302359002653577	0.007509033019912438	-4.624704933909051	0	0	31.81993300021875	11.78065106180611	-6.866855910499216	3.340822503023861	0.0583083524024846	-4.624704933922269	0	0	0	0	0	0	0	0	0	0	0	0	0	0	0	0	0	0	0
1.692307692307691	29.09645465083476	-0.1321951896215032	-145.6720926239442	0	0.93	0	24.64577291240215	-15.99408552057318	-17.36117399119304	0.5366500290653078	0.009366309938112889	-4.670456775503882	-4.70546609926834e-16	-2.779944005053703e-15	27.08166095220403	16.04820301018473	12.01098485028981	3.129605172723047	0.054621914551463	-4.670456775507806	-9.659963681973697e-15	-2.119976317661444e-16	-4.769366815557245e-25	-1.193062529874889e-22	-5.882978958617071e-25	1.600548581672315e-14	2.115717973902536e-17	9.864926173731569e-14	0	0	1.294835348500312e-22	-1.557984950487599e-22	-6.83513801326814e-13	-3.995308982361147e-13	-2.305888765746424e-13	2.574533647189331e-13	0	-1.032373542579139e-21	1.613735234106753e-22
1.71153846153846	-1.10468675571279	9.01359248788326	-179.7171202838014	0	0.93	0	-1.096641459150179	8.789870488618593	13.03235191429807	0.4971678912006236	0.008677216636647826	-4.746043441115638	0	0	1.183294934996451	-10.04389288193468	-17.05004357377661	3.369571706874669	0.05881012066700821	-4.746043441118429	0	0	0	0	0	0	0	0	0	0	0	0	0	0	0	0	0	0	0
